Coordinates
version=1
nRows=12
nColumns=46
inDegrees=yes

Units are S.I. units (second, meters, Newtons, ...)
Angles are in degrees.

endheader
time	pelvis_tilt	pelvis_list	pelvis_rotation	pelvis_tx	pelvis_ty	pelvis_tz	bb_angle	bb_tx	bb_ty	bb_tz	hip_flexion_r	hip_adduction_r	hip_rotation_r	knee_angle_r	knee_angle_r_beta	ankle_angle_r	subtalar_angle_r	mtp_angle_r	crank_angle_r	hip_flexion_l	hip_adduction_l	hip_rotation_l	knee_angle_l	knee_angle_l_beta	ankle_angle_l	subtalar_angle_l	mtp_angle_l	crank_angle_l	lumbar_extension	lumbar_bending	lumbar_rotation	arm_flex_r	arm_add_r	arm_rot_r	elbow_flex_r	pro_sup_r	wrist_flex_r	wrist_dev_r	arm_flex_l	arm_add_l	arm_rot_l	elbow_flex_l	pro_sup_l	wrist_flex_l	wrist_dev_l
      0.00500000	    -28.13361906	     -5.87338303	     -5.42013029	      0.09336900	      1.10793749	     -0.22651614	      0.00000000	      0.50000000	      0.00000000	      0.25000000	     94.09186067	      1.98767890	     -1.44309904	     87.46243608	      1.52650748	     22.85027368	     -4.82696808	      0.00000000	      0.00000000	     52.26173342	    -12.82885068	      0.60810949	     42.14098480	      0.73549893	      5.49598470	     -0.61960427	      0.00000000	      0.00000000	    -44.79875997	      2.69388904	      6.62173484	     89.75085906	     -3.68408161	     34.64981250	     36.71450414	     28.09952027	      0.00000000	      0.00000000	     89.75728394	     -7.59839310	     32.11143936	     36.51314537	     27.79656170	      0.00000000	      0.00000000
      0.01000000	    -28.14344104	     -5.84277156	     -5.42787021	      0.09326835	      1.10795724	     -0.22652455	      0.00000000	      0.50000000	      0.00000000	      0.25000000	     94.11001064	      1.99768707	     -1.40288499	     87.45083524	      1.52630501	     22.83245276	     -4.81473695	      0.00000000	      0.00000000	     52.25658537	    -12.80374097	      0.59515106	     42.11812948	      0.73510003	      5.50155317	     -0.63835100	      0.00000000	      0.00000000	    -44.80030278	      2.66473978	      6.57559752	     89.74999337	     -3.62860287	     34.80757954	     37.58223455	     23.57691069	      0.00000000	      0.00000000	     89.75652621	     -7.65946741	     32.44009842	     37.55774872	     22.23074266	      0.00000000	      0.00000000
      0.01500000	    -28.13562617	     -5.81798403	     -5.41421677	      0.09320826	      1.10795505	     -0.22654653	      0.00000000	      0.50000000	      0.00000000	      0.25000000	     94.11669805	      1.97731629	     -1.38120664	     87.45967541	      1.52645930	     22.82521321	     -4.81337608	      0.00000000	      0.00000000	     52.24026712	    -12.77544701	      0.57654235	     42.10316340	      0.73483883	      5.51804449	     -0.60784989	      0.00000000	      0.00000000	    -44.80782245	      2.64618050	      6.51795213	     89.74911092	     -3.41599217	     34.19597796	     37.00828860	     25.93796363	      0.00000000	      0.00000000	     89.75579584	     -7.47811960	     31.69799031	     37.00138520	     24.84918351	      0.00000000	      0.00000000
      0.02000000	    -28.12625667	     -5.50770218	     -5.78730241	      0.09370574	      1.10838573	     -0.22555274	      0.00000000	      0.50000000	      0.00000000	      0.25000000	     94.17346284	      2.49924471	     -1.09408824	     87.49439160	      1.52706521	     22.51573820	     -5.32881324	      0.00000000	      0.00000000	     51.92120169	    -13.16715544	     -0.69441771	     41.80760374	      0.72968034	      5.74310831	     -0.03660581	      0.00000000	      0.00000000	    -44.81342690	      2.13595610	      6.53689667	     89.74678786	     -3.66296403	     35.45368726	     36.68912953	     26.64492752	      0.00000000	      0.00000000	     89.75240294	     -8.14024487	     32.75889144	     37.20779167	     25.67619508	      0.00000000	      0.00000000
      0.02500000	    -28.40146110	     -5.54502750	     -5.31843434	      0.09300600	      1.10849783	     -0.22718622	      0.00000000	      0.50000000	      0.00000000	      0.25000000	     94.42304510	      1.99477372	     -1.06719421	     87.44164194	      1.52614456	     22.44265723	     -5.52227039	      0.00000000	      0.00000000	     52.08616788	    -12.73176066	     -0.46335883	     41.28715009	      0.72059671	      5.58140377	     -0.34953650	      0.00000000	      0.00000000	    -44.62549549	      2.54813677	      6.34182448	     89.75382197	     -3.46009397	     32.55814564	     36.82111973	     28.28616275	      0.00000000	      0.00000000	     89.75061355	     -8.40600744	     33.18527384	     37.28975395	     27.78052619	      0.00000000	      0.00000000
      0.03000000	    -28.25848920	     -5.49142225	     -5.23947678	      0.09323345	      1.10887809	     -0.22704668	      0.00000000	      0.50000000	      0.00000000	      0.25000000	     94.16503167	      1.81050692	     -0.95212310	     87.31746729	      1.52397730	     22.69695788	     -4.82960458	      0.00000000	      0.00000000	     51.60831624	    -12.22802373	      0.42936190	     40.64593495	      0.70940539	      5.06137491	     -1.23768212	      0.00000000	      0.00000000	    -44.73197303	      2.41808553	      6.16979761	     89.75393986	     -4.71662774	     35.19420453	     38.48240481	     23.25022269	      0.00000000	      0.00000000	     89.75631649	     -7.66370464	     32.35747600	     37.75211633	     22.52367700	      0.00000000	      0.00000000
      0.03500000	    -28.20977600	     -5.36501753	     -5.08848325	      0.09326146	      1.10912094	     -0.22742846	      0.00000000	      0.50000000	      0.00000000	      0.25000000	     94.10960651	      1.52312073	     -0.91221376	     87.32085762	      1.52403647	     22.77841840	     -4.56727563	      0.00000000	      0.00000000	     51.28881030	    -11.83260745	      0.75179369	     40.14375238	      0.70064065	      4.89388646	     -1.82143120	      0.00000000	      0.00000000	    -44.81515046	      2.46031131	      6.01499257	     89.75465454	     -4.60549136	     34.80963580	     38.30487913	     24.34655827	      0.00000000	      0.00000000	     89.75668706	     -7.63507850	     32.10552492	     37.54278887	     23.70837853	      0.00000000	      0.00000000
      0.04000000	    -28.01397275	     -5.17049656	     -4.94695405	      0.09339303	      1.10981266	     -0.22760749	      0.00000000	      0.50000000	      0.00000000	      0.25000000	     93.91574070	      1.31270176	     -0.79273137	     87.33429705	      1.52427103	     22.79049903	     -4.48199486	      0.00000000	      0.00000000	     50.81062471	    -11.41950089	      1.01370428	     39.66260056	      0.69224297	      4.69285538	     -2.33293777	      0.00000000	      0.00000000	    -45.11795207	      2.39294686	      5.98598877	     89.75756237	     -4.28471550	     33.79456281	     38.13983828	     24.99520911	      0.00000000	      0.00000000	     89.75700774	     -7.47197331	     31.82071186	     37.60625106	     24.47328532	      0.00000000	      0.00000000
      0.04500000	    -28.16471596	     -5.19136700	     -5.33492300	      0.09346462	      1.10949424	     -0.22620289	      0.00000000	      0.50000000	      0.00000000	      0.25000000	     94.08622352	      1.83084690	     -0.81104976	     87.27132141	      1.52317190	     22.68441052	     -4.64099528	      0.00000000	      0.00000000	     50.93554442	    -11.88600036	      0.62644094	     39.76147268	      0.69396861	      4.87280538	     -2.02511160	      0.00000000	      0.00000000	    -44.94100691	      2.09302662	      6.23898809	     89.75535085	     -4.00590959	     33.09778114	     37.50583536	     27.13251143	      0.00000000	      0.00000000	     89.75605058	     -7.44650895	     31.61048937	     37.10953646	     26.73104437	      0.00000000	      0.00000000
      0.05000000	    -28.99772081	     -6.01359259	     -6.00617433	      0.09193663	      1.10724404	     -0.22260199	      0.00000000	      0.50000000	      0.00000000	      0.25000000	     94.97102250	      3.02573921	     -1.53782475	     87.04526337	      1.51922644	     22.19883985	     -5.63301282	      0.00000000	      0.00000000	     52.37178292	    -13.48227082	      0.60287168	     40.63683223	      0.70924652	      5.44350938	     -0.81532075	      0.00000000	      0.00000000	    -44.01388601	      2.23436675	      7.24473677	     89.75140479	     -3.88728614	     33.24024130	     37.06726907	     27.31973985	      0.00000000	      0.00000000	     89.75480133	     -7.55428592	     31.88684610	     36.91078741	     26.95680256	      0.00000000	      0.00000000
      0.05500000	    -29.03665876	     -6.11363631	     -6.00586744	      0.09177253	      1.10723873	     -0.22242661	      0.00000000	      0.50000000	      0.00000000	      0.25000000	     94.98971042	      3.06130268	     -1.62805992	     87.00699914	      1.51855861	     22.18705535	     -5.66188012	      0.00000000	      0.00000000	     52.35100543	    -13.48648632	      0.91567084	     40.48944338	      0.70667410	      5.42648280	     -1.01587089	      0.00000000	      0.00000000	    -44.01065391	      2.30337404	      7.32357103	     89.75171078	     -3.96074345	     33.26983379	     37.21323011	     27.22605943	      0.00000000	      0.00000000	     89.75391943	     -7.61337792	     31.96091046	     37.03712543	     26.83493606	      0.00000000	      0.00000000
      0.06000000	    -29.06915001	     -6.08443238	     -6.05698391	      0.09163267	      1.10729241	     -0.22235540	      0.00000000	      0.50000000	      0.00000000	      0.25000000	     94.99558407	      3.16905826	     -1.59670870	     86.99142541	      1.51828679	     22.21340943	     -5.83332462	      0.00000000	      0.00000000	     52.33968190	    -13.48408073	      0.89015112	     40.41957583	      0.70545468	      5.41964484	     -1.08159383	      0.00000000	      0.00000000	    -43.99054506	      2.23272792	      7.33524688	     89.75099111	     -3.81114561	     32.69743285	     36.82946803	     28.89962295	      0.00000000	      0.00000000	     89.75466509	     -7.46004732	     31.42188721	     36.70687728	     28.55277442	      0.00000000	      0.00000000
